<?xml version="1.0" encoding="UTF-8" standalone="no"?>
<svg viewBox="-26 -28 512 512" version="1.1" id="svg940" sodipodi:docname="resurviv.svg" width="512" height="512" inkscape:version="1.3.2 (091e20ef0f, 2023-11-25, custom)" inkscape:export-xdpi="655.35999" inkscape:export-ydpi="655.35999" xml:space="preserve" xmlns:inkscape="http://www.inkscape.org/namespaces/inkscape" xmlns:sodipodi="http://sodipodi.sourceforge.net/DTD/sodipodi-0.dtd" xmlns="http://www.w3.org/2000/svg" xmlns:svg="http://www.w3.org/2000/svg"><sodipodi:namedview id="namedview942" pagecolor="#505050" bordercolor="#ffffff" borderopacity="1" inkscape:pageshadow="0" inkscape:pageopacity="0" inkscape:pagecheckerboard="1" showgrid="false" inkscape:zoom="1.3966346" inkscape:cx="274.58864" inkscape:cy="240.22031" inkscape:window-width="2560" inkscape:window-height="1372" inkscape:window-x="0" inkscape:window-y="0" inkscape:window-maximized="1" inkscape:current-layer="g958" inkscape:showpageshadow="2" inkscape:deskcolor="#d1d1d1" /><defs id="defs928"><clipPath id="a"><path d="M-45.534 209.35l29.33 16.933v33.867l-29.33 16.933-29.33-16.933v-33.867z" fill-opacity=".506" stroke="#fff" stroke-width="2.117" stroke-opacity=".502" id="path1" /></clipPath></defs><g id="g958" transform="matrix(8.163575,0,0,8.163575,191.35518,205.68233)"><g id="g1" transform="matrix(0.49417856,0,0,0.49417856,-26.893936,-28.893328)"><path transform="matrix(-1.6226545,-0.93684,0.93684,-1.6226545,-237.74025,415.99769)" d="m -45.534,209.35 29.33,16.933 v 33.867 l -29.33,16.933 -29.33,-16.933 v -33.867 z" clip-path="url(#a)" stroke="#ffffff" stroke-width="4.011" id="path2" /><path d="M 64,26.5 A 37.5,37.5 0 0 0 26.5,64 37.5,37.5 0 0 0 64,101.5 37.5,37.5 0 0 0 101.5,64 37.5,37.5 0 0 0 64,26.5 Z m 16.45,9.26 C 91.043,41.953 96.8,53.237 96.53,64.71 H 72.209 c -0.156,-2.859 -1.673,-5.596 -4.282,-7.175 z m -33.618,0.403 12.22,21.163 a 8.86,8.86 0 0 0 -3.477,3.38 8.854,8.854 0 0 0 -1.18,4.005 H 31.474 c -0.152,-5.804 1.145,-11.735 4.26,-17.132 A 32.461,32.461 0 0 1 46.833,36.163 Z m 16.486,23.135 a 5.862,5.862 0 0 1 2.92,0.793 5.846,5.846 0 0 1 2.145,8.017 5.84,5.84 0 0 1 -8.011,2.145 5.846,5.846 0 0 1 -2.15,-8.015 5.844,5.844 0 0 1 5.096,-2.94 z m 4.623,13.5 11.382,19.738 c -4.984,2.662 -10.58,4.087 -16.246,3.94 -5.196,-0.135 -10.373,-1.512 -15.2,-4.263 l 11.148,-19.21 c 2.875,1.572 6.273,1.393 8.916,-0.205 z" fill="#ffffff" stroke-width="4.082" id="path3" /></g></g></svg>
