<?xml version="1.0" encoding="UTF-8" standalone="no"?>
<svg width="22" height="22.000128" viewBox="0 0 22 22.000128" version="1.1" id="svg8" sodipodi:docname="favicon.svg" inkscape:version="1.3.2 (091e20ef0f, 2023-11-25, custom)" xmlns:inkscape="http://www.inkscape.org/namespaces/inkscape" xmlns:sodipodi="http://sodipodi.sourceforge.net/DTD/sodipodi-0.dtd" xmlns="http://www.w3.org/2000/svg" xmlns:svg="http://www.w3.org/2000/svg" xmlns:rdf="http://www.w3.org/1999/02/22-rdf-syntax-ns#" xmlns:cc="http://creativecommons.org/ns#" xmlns:dc="http://purl.org/dc/elements/1.1/">
  <sodipodi:namedview id="namedview1" pagecolor="#ffffff" bordercolor="#000000" borderopacity="0.25" inkscape:showpageshadow="2" inkscape:pageopacity="0.0" inkscape:pagecheckerboard="0" inkscape:deskcolor="#d1d1d1" inkscape:zoom="16" inkscape:cx="11.6875" inkscape:cy="15.09375" inkscape:current-layer="svg8" />
  <defs id="defs2" />
  <metadata id="metadata5">
    <rdf:RDF>
      <cc:Work rdf:about="">
        <dc:format>image/svg+xml</dc:format>
        <dc:type rdf:resource="http://purl.org/dc/dcmitype/StillImage" />
        <dc:title />
      </cc:Work>
    </rdf:RDF>
  </metadata>
  <g id="g1" transform="matrix(2.3097063,0,0,3.1980603,-8.1308716,-617.08735)">
    <path fill="#5bcefa" d="m 3.5203054,199.83597 h 9.5250206 v -1.40229 H 3.5203054 Z" id="path1" style="stroke-width:0.264583" sodipodi:nodetypes="ccccc" />
    <path fill="#f5a9b8" d="m 3.5272054,197.05785 -0.0069,1.40229 h 9.5249996 v -1.40229 z" id="path2" style="stroke-width:0.264583" />
    <path fill="#eeeeee" d="m 3.5203264,195.68201 h 9.5249996 v 1.40229 H 3.5203264 Z" id="path3" style="stroke-width:0.264583" />
    <path fill="#f5a9b8" d="m 3.5203264,194.25379 h 9.5249996 v 1.45468 H 3.5203264 Z" id="path4" style="stroke-width:0.264583" />
    <path fill="#5bcefa" d="m 13.045326,192.95676 -9.5249996,4e-5 v 1.37584 l 9.5249996,-4e-5 z" id="path5" style="stroke-width:0.264583" sodipodi:nodetypes="ccccc" />
  </g>
  <g style="fill:#ff0000;fill-opacity:1" id="layer1" transform="matrix(0.04,0,0,0.04,0.72000012,-32.960008)">
    <path style="opacity:1;fill:#ff0000;fill-opacity:1;stroke:none;stroke-width:17.7848;stroke-linecap:round;stroke-linejoin:round;stroke-miterlimit:4;stroke-dasharray:none;stroke-dashoffset:0;stroke-opacity:1;paint-order:markers fill stroke" d="m 157.54301,922.36336 -16.97149,16.9707 -45.256019,45.2539 -56.570993,56.57034 62.227502,62.2246 56.571,-56.5684 299.82842,299.8124 a 32.001491,31.999993 0 0 0 45.25601,0 32.001491,31.999993 0 0 0 0,-45.2539 l -299.82646,-299.8143 16.9715,-16.97074 50.91448,-50.91015 z" id="path1492" />
    <path style="opacity:1;fill:#ff0000;fill-opacity:1;stroke:none;stroke-width:0.864885;stroke-linecap:round;stroke-linejoin:round;stroke-miterlimit:4;stroke-dasharray:none;stroke-dashoffset:0;stroke-opacity:1;paint-order:markers fill stroke" d="m 255.989,844.0001 c 0,0 168.00781,127.99997 168.00783,256 C 423.99684,1164 367.99425,1236 271.98975,1236 c -64.00296,0 -104.24119,-47.7637 -104.24119,-47.7637 l -11.31302,11.3125 a 16.000745,15.999996 0 0 0 -22.62801,0 16.000745,15.999996 0 0 0 -2.47863,3.2227 32.001491,31.999993 0 0 0 -31.464359,8.0918 32.001491,31.999993 0 0 0 -9.330512,21.5449 C 65.101725,1246.1605 22.969246,1272.9834 4.2643862,1308 l 0.029298,0.029 A 32.001491,31.999993 0 0 0 4.2643862,1340 32.001491,31.999993 0 0 0 47.979313,1351.7129 c 35.025561,-18.708 61.854737,-60.8518 75.605087,-86.2813 a 32.001491,31.999993 0 0 0 21.53616,-9.3144 32.001491,31.999993 0 0 0 7.93201,-13.2012 c 24.51647,23.0544 71.44493,57.084 134.93792,57.084 96.00451,0 200.00932,-72 200.00932,-199.9999 0,-160.00002 -232.01081,-256 -232.01081,-256 z" id="path1514" />
  </g>
</svg>
