<?xml version="1.0" encoding="UTF-8" standalone="no"?>
<svg height="40.000011" width="40" version="1.1" id="svg14" sodipodi:docname="kde.svg" inkscape:version="1.3.2 (091e20ef0f, 2023-11-25, custom)" xmlns:inkscape="http://www.inkscape.org/namespaces/inkscape" xmlns:sodipodi="http://sodipodi.sourceforge.net/DTD/sodipodi-0.dtd" xmlns:xlink="http://www.w3.org/1999/xlink" xmlns="http://www.w3.org/2000/svg" xmlns:svg="http://www.w3.org/2000/svg">
  <defs id="defs14" />
  <sodipodi:namedview id="namedview14" pagecolor="#ffffff" bordercolor="#000000" borderopacity="0.25" inkscape:showpageshadow="2" inkscape:pageopacity="0.0" inkscape:pagecheckerboard="0" inkscape:deskcolor="#d1d1d1" inkscape:zoom="3.296875" inkscape:cx="61.118483" inkscape:cy="5.3080569" inkscape:current-layer="svg14" />
  <linearGradient id="a">
    <stop offset="0" id="stop1" />
    <stop offset="1" stop-opacity="0" id="stop2" />
  </linearGradient>
  <linearGradient id="b" gradientUnits="userSpaceOnUse" x1="16" x2="34.942001" xlink:href="#a" y1="11" y2="29.941999" gradientTransform="translate(-3.9999997,-3.9999944)" />
  <linearGradient id="c" gradientTransform="rotate(45,2.8284205,-6.8284239)" gradientUnits="userSpaceOnUse" x1="31.021" x2="43.104" xlink:href="#a" y1="-9.8959999" y2="-9.8959999" />
  <linearGradient id="d" gradientUnits="userSpaceOnUse" x1="23.716" x2="26.348" xlink:href="#a" y1="13.219" y2="15.851" gradientTransform="translate(-3.9999997,-3.9999944)" />
  <linearGradient id="e" gradientTransform="matrix(0.8712017,0,0,0.85823679,38.397368,3.2140424)" gradientUnits="userSpaceOnUse" x1="-45.221867" x2="0.69172603" y1="-4.91011" y2="41.697075">
    <stop offset="0" stop-color="#2bc0ff" id="stop3" />
    <stop offset="1" stop-color="#1d99f3" id="stop4" />
  </linearGradient>
  <path d="M 4.9999999,0 H 34.999999 C 38,0 40,2.0000053 40,5.0000057 V 35.000004 c 0,3.000002 -2,5.000007 -5.000001,5.000007 H 4.9999999 C 1.9999999,40.000011 0,38.000006 0,35.000004 V 5.0000057 C 0,2.0000053 1.9999999,0 4.9999999,0 Z" fill="url(#e)" id="path4" style="fill:url(#e);stroke-width:0.833333" />
  <path d="m 18.162109,14.726568 -2.193359,-2.193359 -2.304688,1.455078 -0.867187,1.992188 -6.7499997,6.75 4.6074217,4.607422 -1.9648437,1.748047 9.9140627,9.914062 H 32.8125 C 35.686565,39.000006 38,36.719685 38,33.888678 29.503716,23.406597 20,12.000006 18.162109,14.726568 Z" fill="url(#b)" opacity="0.2" id="path9" style="fill:url(#b)" />
  <path d="M 32.970703,6.9882866 28.601562,8.1660216 24.082031,17.666022 28,25.994147 39.285156,37.279303 C 39.737436,36.495103 40,35.588916 40,34.619147 V 14.017584 Z" fill="url(#c)" opacity="0.2" id="path10" style="fill:url(#c)" />
  <path d="m 22.000804,5.9953974 4.531314,4.5313146 -3.142254,6.655326 -6.28785,-6.28785 z" fill="url(#d)" opacity="0.2" id="path11" style="fill:url(#d)" />
  <path d="m 11.208984,10.617194 c -0.123062,-0.0059 -0.241909,0.03097 -0.339843,0.128906 l -2.1230467,2.123047 c -0.195869,0.195869 -0.195869,0.511162 0,0.707031 l 2.1933587,3.445312 c -0.175549,0.354193 -0.327571,0.719568 -0.455078,1.09375 l -3.9843747,0.884766 c -0.277,0 -0.5,0.223 -0.5,0.5 v 3 c 0,0.277 0.229596,0.43991 0.5,0.5 l 3.9863277,0.886719 c 0.12346,0.370523 0.270907,0.732616 0.441406,1.083984 l -2.1972647,3.453125 c -0.148715,0.233695 -0.195869,0.511162 0,0.707031 l 2.1210927,2.123047 c 0.19587,0.195869 0.511163,0.195869 0.707032,0 l 3.453125,-2.199218 c 0.357212,0.177942 0.725864,0.331927 1.103515,0.460937 L 17,33.500006 c 0,0.277 0.223,0.5 0.5,0.5 h 3 c 0.277,0 0.43991,-0.229596 0.5,-0.5 l 0.886719,-3.986328 c 0.376029,-0.125362 0.743365,-0.275428 1.099609,-0.449219 l 3.4375,2.189453 c 0.195869,0.195869 0.511162,0.195869 0.707031,0 l 2.123047,-2.123047 c 0.195869,-0.195869 0.148715,-0.473336 0,-0.707031 l -0.9375,-1.472656 -0.699218,0.279297 L 25.376953,23.8711 C 24.247974,26.381479 21.752561,27.997192 19,28.000006 c -3.865993,0 -7,-3.134007 -7,-7 0.0031,-2.700827 1.559779,-5.15891 4,-6.316406 v -2.152344 c -0.336475,0.11516 -0.665829,0.250162 -0.986328,0.404297 l -3.4375,-2.189453 c -0.116848,-0.07436 -0.244125,-0.123012 -0.367188,-0.128906 z" fill="#ffffff" id="path12" />
  <path d="m 22,6.0000056 -5,0.462891 V 26.000006 l 5,-1 v -8 l 6,9 5,-2 -6.5,-8.414062 6.503906,-8.5859384 -5.236328,-1 L 22,14.500006 Z" fill="#ffffff" id="path13" />
  <path d="m 3.4999998e-7,34.000006 v 1 c 0,3 1.99999995000002,5 4.99999995000002,5 H 35 c 3,0 5,-2 5,-5 v -1 c 0,3 -2,5 -5,5 H 5.0000003 c -3,0 -4.99999995000002,-2 -4.99999995000002,-5 z" opacity="0.2" id="path14" />
</svg>
