<?xml version="1.0" encoding="UTF-8" standalone="no"?>
<svg viewBox="-26 -28 512 512" version="1.1" id="svg940" sodipodi:docname="suroi.svg" width="512" height="512" inkscape:version="1.3.2 (091e20ef0f, 2023-11-25, custom)" inkscape:export-xdpi="655.35999" inkscape:export-ydpi="655.35999" xml:space="preserve" xmlns:inkscape="http://www.inkscape.org/namespaces/inkscape" xmlns:sodipodi="http://sodipodi.sourceforge.net/DTD/sodipodi-0.dtd" xmlns="http://www.w3.org/2000/svg" xmlns:svg="http://www.w3.org/2000/svg"><sodipodi:namedview id="namedview942" pagecolor="#505050" bordercolor="#ffffff" borderopacity="1" inkscape:pageshadow="0" inkscape:pageopacity="0" inkscape:pagecheckerboard="1" showgrid="false" inkscape:zoom="0.9875698" inkscape:cx="192.39147" inkscape:cy="355.92421" inkscape:window-width="2560" inkscape:window-height="1372" inkscape:window-x="0" inkscape:window-y="0" inkscape:window-maximized="1" inkscape:current-layer="g958" inkscape:showpageshadow="2" inkscape:deskcolor="#d1d1d1" /><defs id="defs928" /><g id="g958" transform="matrix(8.163575,0,0,8.163575,191.35518,205.68233)"><circle style="fill:#000000;fill-opacity:1;stroke:#008af0;stroke-width:3.75;stroke-linejoin:round;stroke-miterlimit:4;stroke-dasharray:none;stroke-opacity:1" id="path1805" cx="4.7338104" cy="2.7338104" r="29.48381" /><g id="g19" transform="translate(0,-72.312681)"><path id="path19" style="fill:#ff7500;fill-opacity:1;stroke-width:2.88214" d="m 2.8423104,50.546475 a 14.077815,14.125272 0 0 0 -12.2004893,13.961359 14.077815,14.125272 0 0 0 0.2083856,2.328848 14.077815,14.125272 0 0 0 -2.1073027,0.975417 14.077815,14.125272 0 0 0 -5.951312,17.586935 l 0.438303,-0.253604 a 9.8544705,9.8876909 0 0 1 4.372032,-11.779172 9.8544705,9.8876909 0 0 1 5.3950586,-1.313954 9.8544705,9.8876909 0 0 1 7.80022656,4.544769 L 2.0841311,75.847268 A 2.8155628,2.8250543 0 0 1 1.9044553,74.866109 2.8155628,2.8250543 0 0 1 4.2478967,72.086038 v -1.499611 a 9.8544701,9.8876905 0 0 1 -9.3847709,-9.845325 9.8544701,9.8876905 0 0 1 7.9799023,-9.698426 z m 3.7538126,0 v 0.496201 a 9.8544701,9.8876905 0 0 1 7.980142,9.698426 9.8544701,9.8876905 0 0 1 -9.3850106,9.873317 v 1.471858 A 2.8155628,2.8250543 0 0 1 7.5346958,74.866109 2.8155628,2.8250543 0 0 1 7.35502,75.847268 l 1.2871582,0.750044 a 9.8544705,9.8876909 0 0 1 7.7999878,-4.544769 9.8544705,9.8876909 0 0 1 5.395059,1.313715 9.8544705,9.8876909 0 0 1 4.389018,11.790417 L 26.67603,85.41626 A 14.077815,14.125272 0 0 0 20.696487,67.812338 14.077815,14.125272 0 0 0 18.589184,66.836682 14.077815,14.125272 0 0 0 18.797569,64.507834 14.077815,14.125272 0 0 0 6.59708,50.546475 Z m -4.0406719,26.118306 -1.2699323,0.7388 A 9.8544705,9.8876909 0 0 1 -2.5472459,90.490965 9.8544705,9.8876909 0 0 1 -14.893677,88.404477 L -15.33222,88.65832 A 14.077815,14.125272 0 0 0 2.8195817,92.278153 14.077815,14.125272 0 0 0 4.7302221,90.94171 14.077815,14.125272 0 0 0 6.6186124,92.278153 14.077815,14.125272 0 0 0 24.770414,88.65832 L 24.33211,88.404477 A 9.8544705,9.8876909 0 0 1 11.98544,90.490965 9.8544705,9.8876909 0 0 1 8.169662,77.414825 L 6.882743,76.670522 A 2.8155628,2.8250543 0 0 1 4.7192167,77.691158 2.8155628,2.8250543 0 0 1 2.5556904,76.66502 Z" /><path id="path18" style="fill:#008aff;fill-opacity:1;stroke-width:2.88214" d="m 4.7192167,62.156259 v 2.39e-4 c -2.965325,0 -5.69371819,1.039379 -7.85645,2.762844 a 8.9159491,8.9460057 0 0 0 2.034332,2.559962 c 1.59831138,-1.26752 3.6157692,-2.029786 5.822118,-2.029786 2.2154178,0 4.2431303,0.76439 5.8443683,2.04103 a 8.9159491,8.9460057 0 0 0 2.028829,-2.559961 C 10.427109,63.199624 7.6917707,62.156259 4.7192167,62.156259 Z m -11.7672098,10.83725 -4.785e-4,4.78e-4 a 8.9159491,8.9460057 0 0 0 -0.7531551,0.0335 c -0.0887,0.602277 -0.1507267,1.212064 -0.1507267,1.838148 0,5.356575 3.3403728,9.946491 8.03062311,11.812906 A 8.9159491,8.9460057 0 0 0 1.2807339,83.628115 c -3.4880796,-1.370754 -5.9455704,-4.762892 -5.9455704,-8.762485 0,-0.457883 0.04438,-0.902103 0.1064657,-1.342185 a 8.9159491,8.9460057 0 0 0 -2.4896223,-0.529936 z m 23.5348981,4.78e-4 a 8.9159491,8.9460057 0 0 0 -2.489622,0.529936 c 0.06209,0.440083 0.106465,0.884303 0.106465,1.342186 0,3.989536 -2.443424,7.379292 -5.9175779,8.756743 a 8.9159491,8.9460057 0 0 0 1.1969614,3.05066 c 4.6790075,-1.871799 8.0081335,-6.45895 8.0081335,-11.807403 0,-0.626085 -0.06424,-1.23611 -0.150726,-1.838388 a 8.9159491,8.9460057 0 0 0 -0.753155,-0.03325 z" /></g><circle style="fill:none;fill-opacity:1;stroke:#ff7500;stroke-width:3;stroke-linejoin:round;stroke-miterlimit:4;stroke-dasharray:none;stroke-opacity:1" id="path1388" cx="4.7338099" cy="2.7338099" r="28.553837" /></g></svg>
